<svg width="1047" height="888" fill="none" xmlns="http://www.w3.org/2000/svg"><circle cx="639" cy="392" r="408" fill="#FFFCBF"/><path fill-rule="evenodd" clip-rule="evenodd" d="M788.225 299.334c-.533-.388-1.799-.525-2.387-.642-2.448-.482-4.969-.692-7.464-.692-7.693.012-15.511.767-23.076 2.074-4.804.829-10.611 3.622-15.389 2.105-8.324-2.642-16.737-2.512-24.635 1.26-7.221 3.449-12.702 10-15.901 17.078-.483 1.069-2.441 5.002-2.995 7.653a30.662 30.662 0 00-.67 1.641 82.997 82.997 0 00-1.59 4.777c-.208.684-.729 2.194-.11 2.486a45.5 45.5 0 00-2.597 5.652c-2.125 5.652-4.449 11.852-5.196 17.842a27.931 27.931 0 00-.03 6.671c.127 1.099.075 3.307.819 4.143 1.581 1.772 2.392-.709 2.214-1.891-1.36-9.006 1.267-17.464 4.38-25.93 2.014-5.474 5.322-10.483 9.028-15.018 2.999-3.672 6.216-6.563 10.327-8.997 5.028-2.977 10.403-5.383 15.728-7.797 3.503-1.588 7.01-3.134 10.61-4.502.801-.305 2.06-1.086 2.948-1.089 1.877-.006 4.538 1.379 6.351 1.894 5.964 1.696 12.004 3.867 18.168 4.733 3.954.556 7.658-.07 11.355-1.387.378-.134 1.012-.48 1.788-.974 2.745-1.056 5.342-2.385 7.603-4.303 1.302-1.104 2.485-2.532 3.563-3.839.322-.39.465-.838.47-1.264.244-.127.406-.277.443-.451.269-1.286-2.184-1.309-3.755-1.233" fill="#89C5CC"/><path fill-rule="evenodd" clip-rule="evenodd" d="M163.273 406.541a112.017 112.017 0 00-4.433 3.769c-1.101.99-3.049 2.175-3.444 3.675-.411 1.559.886 3.018 1.91 3.96 5.417 4.984 11.517 8.353 19.023 8.914 11.558.863 21.617-2.089 31.645-7.896 7.044-4.08 11.71-10.114 12.729-18.262 8.389 3.486 16.502 8.292 23.397 14.19 3.402 2.91 6.332 6.134 9.042 9.708 1.736 2.29 3.415 4.616 4.973 7.032.677 1.049 1.366 2.911 2.484 3.515 1.313.71 2.9-.403 2.835-1.862-.055-1.215-1.366-2.624-1.98-3.617a133.146 133.146 0 00-3.141-4.891c-1.762-2.597-3.583-5.156-5.569-7.586-4.464-5.46-10.143-9.969-16.03-13.815-11.294-7.378-23.689-12.026-37.431-12.42-8.45-.242-15.558 2.645-22.784 6.956-4.499 2.684-9.143 5.324-13.226 8.63" fill="#DDE3E9"/><path fill-rule="evenodd" clip-rule="evenodd" d="M272.883 370.856c-8.806-9.069-17.642-18.024-27.48-26.009-5.798-4.706-11.908-8.984-17.892-13.446a57.62 57.62 0 012.028 1.865c-1.868-1.268-4.313-1.985-6.293-3.159-2.209-1.309-4.321-2.806-6.392-4.316-4.043-2.946-8.025-5.948-12.181-8.74-4.63-3.111-9.428-5.985-14.137-8.979-3.997-2.54-8.042-5.321-12.318-7.398-2.33-1.132-4.665-2.473-7.005-3.654-.783-.395-8.729-5.412-8.709-5.427.439-.331 4.438 1.547 5.056 1.8 1.806.738 3.534 1.62 5.27 2.5-.953-1.88-1.707-3.855-2.118-5.935-.127-.641-1.143-5.314-.623-5.706.259-.195 2.794 8.164 2.924 8.968.106.652.09 1.592.304 2.211.345.998.328.696 1.088 1.259 1.393 1.031 3.242 1.675 4.749 2.537.814.453 3.331 2.253 4.847 2.766 4.587 2.228 9.237 5.656 13.596 8.502a32.002 32.002 0 01-2.649-6.754c-.151-.559-1.781-5.576-1.385-5.874.445-.335 3.549 7.328 3.733 8.053.341 1.348.412 2.848.84 4.159.469 1.439 1.934 1.949 3.254 2.788 4.857 3.086 9.548 6.365 14.16 9.795 5.033-8.951-.77-19.759-5.66-27.269-3.526-5.413-8.271-10.053-13.282-14.104-6.688-5.407-14.339-9.726-21.981-13.677-8.904-4.603-18.528-7.456-28.534-8.773-5.233-.69-10.586-.67-15.872-.449-2.582.108-5.061.45-7.535 1.292a24.57 24.57 0 00-3.244 1.395c-.798.407-2.729.837-3.187 1.444-3.778 4.917-5.71 9.816-5.415 15.994.279 5.848 2.126 11.699 4.632 16.916 2.792 5.809 6.382 11.081 11.078 15.505 3.582 3.376 7.587 6.314 11.566 9.214 14.151 10.313 32.092 19.283 50.42 16.978 5.933-.745 11.576-2.82 16.849-5.639 1.243-.665 2.478-1.337 3.651-2.121.791-.529 2.905-2.912 3.7-2.998 1.091-.119 3.439 2.099 4.462 2.774 7.774 5.131 15.344 10.541 22.755 16.169 7.886 5.988 15.384 12.384 22.662 19.08 3.095 2.849 6.171 5.703 9.176 8.647.7.685 2.411 3.207 3.68 3.321.802.073 1.343-.612 1.229-1.355-.199-1.291-2.915-3.222-3.817-4.15" fill="#C1DEE2"/><path fill-rule="evenodd" clip-rule="evenodd" d="M778.98 335.66c-3.41-.745-7.177-.688-10.651-.627-18.634.254-36.932 9.076-48.84 23.172-10.138 12-12.926 26.92-14.929 42.002-.198 1.497-.283 2.985-.395 4.486-.024.322-.06.609-.099.88-.787.704-1.201 1.525-.734 2.427-1.735 3.797-3.203 7.69-4.463 11.706-3.707 11.82-7.477 23.865-5.155 36.294.543-6.84 1.685-13.834 3.05-20.562.078-.386.163-.769.251-1.151.01-.04.018-.081.027-.121a44.902 44.902 0 011.875-6.025l.024-.064c.101-.259.208-.517.314-.774.219-.533.444-1.065.682-1.594.081-.181.158-.363.233-.546 1.112-2.726 1.581-5.798 2.578-8.618.238-.641.487-1.28.748-1.916l.047-.111a83.211 83.211 0 012.31-5.072c.448-.336.687-1.172 1.074-1.931.079-.15.704-1.147.89-1.722.486-.939.969-1.878 1.458-2.816l-.044.017c.489-.901.98-1.797 1.467-2.69l.323-.589.524-.938a176.942 176.942 0 015.16-8.61c.642-1.009 2.174-2.456 2.468-3.588.011-.043.013-.082.02-.122 3.9-5.478 8.389-10.53 13.774-14.533-.651.704-2.035 3.091-2.4 3.564-1.12 1.447-2.335 2.794-3.554 4.158-2.185 2.443-4.317 4.963-6.212 7.628-3.466 4.874-6.455 10.003-9.282 15.236-.026.03-.056.059-.081.091-1.421 1.751-2.315 4.397-3.337 6.4 4.046-1.874 8.521-3.095 12.673-4.759 4.142-1.659 8.17-3.507 12.06-5.676 5.169-2.884 10.532-6.139 15.416-9.823 5.597-3.472 10.301-8.251 14.453-13.266 4.912-5.934 9.414-11.919 12.198-19.124 1.368-3.54 2.444-7.232 3.082-10.967.028-.162.063-.339.102-.522a35.958 35.958 0 001.726-3.958c.777-2.14 2.614-4.494-.831-5.246" fill="#69A1AC"/><path fill-rule="evenodd" clip-rule="evenodd" d="M130.292 347.014c-1.352-1.348-2.87-2.564-4.652-3.431-.451-.219-3.807-1.688-4.026-1.365-.509.75 8.272 4.365 8.678 4.796m15.913-9.002c-.011.057 1.153 1.875 1.47 2.434a61.827 61.827 0 011.883 3.615c-.867-2.145-1.758-4.133-3.353-6.049m-81.387 14.802c-1.12.332-2.468-.978-1.014-1.3 1.176-.26 1.118-.321 1.646-1.193.43-.709.694-1.573 1.07-2.316.798-1.578 1.704-3.082 2.816-4.491 2.382-3.021 5.285-5.624 8.54-7.818 5.683-3.828 12.053-7.327 18.811-9.085 10.745-2.795 22.975-2.968 33.737-1.03 6.665 1.2 12.757 3.286 17.182 8.228 2.212 2.47 3.949 5.363 4.708 8.549.198.832.161 1.758.409 2.574.381 1.253.213.919 1.805 1.163 1.739.267 3.476.538 5.212.815 4.547.724 9.121 1.493 13.551 2.668 1.459.387 2.885.859 4.278 1.409 1.053.415 5.249 1.717 5.759 2.978.849 2.097-1.995 1.146-2.878.69a34.747 34.747 0 00-2.375-1.117c-2.03-.865-4.145-1.534-6.308-2.067-2.337-.576-4.722-1.005-7.098-1.436a285.845 285.845 0 00-6.666-1.114c-1.237-.194-2.475-.382-3.713-.571-.423-.064-1.168-.401-1.112.105-2.603-.462-5.418-.395-8.069-.523-3.247-.155-6.507-.283-9.765-.19-2.35.068-4.702.21-7.04.5-1.366.17-2.71.419-4.051.734-.736.173-3.639.539-4.04 1.13.172-.254 3.376-.007 3.784-.022 1.631-.056 3.25-.205 4.875-.372a82.403 82.403 0 019.059-.449c-.011.489-2.078 1.36-2.583 1.684a28.858 28.858 0 00-3.225 2.39c-1.78 1.532-3.912 3.429-5.144 5.244.363-.535 2.154-1.231 2.789-1.639a37.27 37.27 0 002.959-2.101c.871-.689 1.684-1.434 2.483-2.195.799-.761 1.884-2.343 2.934-2.85.064-.031.522.302.782.189.262-.114.588-.685.655-.708.978-.347 2.834.085 3.862.129 2.666.113 5.329.261 7.992.396.825.041 1.527-.131 1.838.429.332.598-.276 2.169-.449 2.82-.643 2.418-1.783 4.587-3.579 6.46-3.362 3.509-7.509 5.848-12.193 7.413-17.941 5.994-37.029 8.394-54.965 2.159-7.425-2.581-18.608-7.194-17.269-16.269" fill="#89C5CC"/><g clip-path="url(#clip0)" opacity=".6"><path fill-rule="evenodd" clip-rule="evenodd" d="M885.965 635.189c12.2 76.083-283.688 125.71-538.365 91.077C92.922 691.633-23.912 556.387 97.616 484.322c121.528-72.064 776.148 74.784 788.349 150.867z" fill="#DDE3E9"/></g><rect x="236" y="180" width="159" height="302" rx="8" fill="#F2F2F2"/><path fill-rule="evenodd" clip-rule="evenodd" d="M315 463c8.284 0 15-6.716 15-15 0-8.284-6.716-15-15-15-8.284 0-15 6.716-15 15 0 8.284 6.716 15 15 15zM302 200a2 2 0 10.001-3.999A2 2 0 00302 200z" fill="#fff"/><rect x="309" y="196" width="21" height="4" rx="2" fill="#fff"/><rect x="250" y="208" width="131" height="54" rx="4" fill="#fff"/><g clip-path="url(#clip1)" fill="#DDE3E9"><rect x="289" y="224.2" width="73" height="8.1" rx="3"/><rect x="289" y="237.7" width="49" height="8.1" rx="3"/></g><path fill-rule="evenodd" clip-rule="evenodd" d="M271 247c6.627 0 12-5.373 12-12s-5.373-12-12-12-12 5.373-12 12 5.373 12 12 12z" fill="#C5CFD6"/><rect x="250" y="270" width="131" height="42" rx="4" fill="#fff"/><g clip-path="url(#clip2)" fill="#DDE3E9"><rect x="289" y="282.6" width="73" height="6.3" rx="3"/><rect x="289" y="293.1" width="49" height="6.3" rx="3"/></g><path fill-rule="evenodd" clip-rule="evenodd" d="M271 303c6.627 0 12-5.373 12-12s-5.373-12-12-12-12 5.373-12 12 5.373 12 12 12z" fill="#C5CFD6"/><rect x="250" y="320" width="131" height="42" rx="4" fill="#fff"/><g clip-path="url(#clip3)" fill="#DDE3E9"><rect x="289" y="332.6" width="73" height="6.3" rx="3"/><rect x="289" y="343.1" width="49" height="6.3" rx="3"/></g><path fill-rule="evenodd" clip-rule="evenodd" d="M271 353c6.627 0 12-5.373 12-12s-5.373-12-12-12-12 5.373-12 12 5.373 12 12 12z" fill="#AFB9C5"/><rect x="250" y="370" width="131" height="42" rx="4" fill="#fff"/><g clip-path="url(#clip4)" fill="#DDE3E9"><rect x="289" y="382.6" width="73" height="6.3" rx="3"/><rect x="289" y="393.1" width="49" height="6.3" rx="3"/></g><path fill-rule="evenodd" clip-rule="evenodd" d="M271 403c6.627 0 12-5.373 12-12s-5.373-12-12-12-12 5.373-12 12 5.373 12 12 12z" fill="#C5CFD6"/><path fill-rule="evenodd" clip-rule="evenodd" d="M266.14 424c-1.325 0-2.646.027-3.969.095-1.009.053-2.55-.156-3.403.473-.887.653-.826 1.989-.687 2.933.732 4.992 2.519 9.418 6.258 12.955 5.757 5.445 12.356 8.212 20.165 9.444 5.486.866 10.55-.336 14.588-4.237 2.951 5.476 5.189 11.536 6.312 17.652.554 3.018.723 6 .626 9.073-.063 1.968-.171 3.932-.382 5.891-.092.851-.526 2.139-.193 2.944.391.944 1.71 1.036 2.302.23.493-.67.403-1.987.504-2.78.168-1.318.323-2.637.434-3.961.181-2.143.314-4.292.305-6.444-.023-4.833-1.098-9.685-2.568-14.273-2.82-8.803-7.395-16.626-14.511-22.764-4.376-3.774-9.384-5.302-15.065-6.123-3.538-.511-7.133-1.108-10.716-1.108" fill="#89C5CC"/><path fill-rule="evenodd" clip-rule="evenodd" d="M286.571 459c-14.299 0-23.929 11.524-28.482 23.502-1.717 4.514-2.119 9.472-2.781 14.212-.212 1.522-.133 3.84-.751 5.195-.224.492-.738.668-.492 1.338.149.405.44.654.879.734.899.166 2.171-.814 2.942-1.2 6.396-3.208 10.598-8.168 14.026-14.236 2.126-3.761 4.282-7.666 5.544-11.795.771-2.523 1.22-5.179 1.484-7.796.104-1.031.204-2.086.198-3.122-.006-1.029-.485-1.573-.829-2.468 4.771-1.806 10.157-2.298 14.99-.427 4.47 1.731 8.183 5.076 10.262 9.279.54 1.092.957 2.244 1.26 3.42.199.77.208 1.768.577 2.464.892 1.688 2.77.56 2.59-1.011-.503-4.381-3.009-8.78-6.213-11.826-4.041-3.842-9.517-6.263-15.204-6.263" fill="#89C5CC"/><rect x="302" y="206" width="159" height="302" rx="8" fill="#DDE3E9"/><path fill-rule="evenodd" clip-rule="evenodd" d="M381 489c8.284 0 15-6.716 15-15 0-8.284-6.716-15-15-15-8.284 0-15 6.716-15 15 0 8.284 6.716 15 15 15zM368 226a2 2 0 10.001-3.999A2 2 0 00368 226z" fill="#fff"/><rect x="375" y="222" width="21" height="4" rx="2" fill="#fff"/><rect x="316" y="234" width="131" height="54" rx="4" fill="#fff"/><g clip-path="url(#clip5)" fill="#DDE3E9"><rect x="325" y="250.2" width="73" height="8.1" rx="3"/><rect x="325" y="263.7" width="49" height="8.1" rx="3"/></g><path fill-rule="evenodd" clip-rule="evenodd" d="M433 268a7 7 0 100-14 7 7 0 000 14z" fill="#DDE3E9"/><path fill-rule="evenodd" clip-rule="evenodd" d="M433 264a3 3 0 100-6 3 3 0 000 6z" fill="#F2F2F2"/><rect x="316" y="296" width="131" height="42" rx="4" fill="#fff"/><g clip-path="url(#clip6)" fill="#DDE3E9"><rect x="355" y="308.6" width="73" height="6.3" rx="3"/><rect x="355" y="319.1" width="49" height="6.3" rx="3"/></g><path fill-rule="evenodd" clip-rule="evenodd" d="M337 329c6.627 0 12-5.373 12-12s-5.373-12-12-12-12 5.373-12 12 5.373 12 12 12z" fill="#C5CFD6"/><rect x="316" y="346" width="131" height="42" rx="4" fill="#fff"/><g clip-path="url(#clip7)"><rect x="325" y="358.6" width="73" height="6.3" rx="3" fill="#DDE3E9"/><rect x="325" y="369.1" width="49" height="6.3" rx="3" fill="#AFB9C5"/></g><path fill-rule="evenodd" clip-rule="evenodd" d="M433 374a7 7 0 100-14 7 7 0 000 14z" fill="#DDE3E9"/><path fill-rule="evenodd" clip-rule="evenodd" d="M433 370a3 3 0 100-6 3 3 0 000 6z" fill="#F2F2F2"/><rect x="316" y="396" width="131" height="42" rx="4" fill="#fff"/><g clip-path="url(#clip8)" fill="#DDE3E9"><rect x="355" y="408.6" width="73" height="6.3" rx="3"/><rect x="355" y="419.1" width="49" height="6.3" rx="3"/></g><path fill-rule="evenodd" clip-rule="evenodd" d="M337 429c6.627 0 12-5.373 12-12s-5.373-12-12-12-12 5.373-12 12 5.373 12 12 12z" fill="#C5CFD6"/><rect x="368" y="231" width="335" height="346" rx="8" fill="#F2F2F2"/><rect x="617" y="274" width="70" height="81" rx="8" fill="#fff"/><path fill-rule="evenodd" clip-rule="evenodd" d="M652 321c8.837 0 16-7.163 16-16s-7.163-16-16-16-16 7.163-16 16 7.163 16 16 16z" fill="#DDE3E9"/><rect x="627" y="325" width="50" height="6" rx="3" fill="#DDE3E9"/><rect x="635" y="335" width="34" height="6" rx="3" fill="#DDE3E9"/><path d="M368 239a8 8 0 018-8h319a8 8 0 018 8v19H368v-19z" fill="#C5CFD6"/><path fill-rule="evenodd" clip-rule="evenodd" d="M381 249a4 4 0 100-8 4 4 0 000 8zM393 249a4 4 0 100-8 4 4 0 000 8zM405 249a4 4 0 100-8 4 4 0 000 8z" fill="#F2F2F2"/><rect x="617" y="363" width="70" height="194" rx="8" fill="#fff"/><rect x="635" y="381" width="34" height="26" rx="4" fill="#DDE3E9"/><rect x="635" y="415" width="34" height="25" rx="4" fill="#AFB9C5"/><rect x="635" y="448" width="34" height="25" rx="4" fill="#DDE3E9"/><rect x="635" y="514" width="34" height="25" rx="4" fill="#DDE3E9"/><rect x="635" y="481" width="34" height="25" rx="4" fill="#C5CFD6"/><rect x="384" y="275" width="225" height="47" rx="4" fill="#fff"/><g clip-path="url(#clip9)" fill="#DDE3E9"><rect x="393" y="289.1" width="167" height="7.05" rx="3"/><rect x="393" y="300.85" width="112.096" height="7.05" rx="3"/></g><path fill-rule="evenodd" clip-rule="evenodd" d="M584.954 305.5a7 7 0 100-14 7 7 0 000 14z" fill="#DDE3E9"/><path fill-rule="evenodd" clip-rule="evenodd" d="M584.954 301.5a3 3 0 100-6 3 3 0 000 6z" fill="#F2F2F2"/><rect x="384" y="330" width="225" height="39" rx="4" fill="#fff"/><g clip-path="url(#clip10)" fill="#DDE3E9"><rect x="393" y="341.7" width="167" height="5.85" rx="2.925"/><rect x="393" y="351.45" width="112.096" height="5.85" rx="2.925"/></g><path fill-rule="evenodd" clip-rule="evenodd" d="M584.954 356.5a7 7 0 100-14 7 7 0 000 14z" fill="#DDE3E9"/><path fill-rule="evenodd" clip-rule="evenodd" d="M584.954 352.5a3 3 0 100-6 3 3 0 000 6z" fill="#F2F2F2"/><rect x="384" y="377" width="225" height="39" rx="4" fill="#fff"/><g clip-path="url(#clip11)" fill="#DDE3E9"><rect x="393" y="388.7" width="167" height="5.85" rx="2.925"/><rect x="393" y="398.45" width="112.096" height="5.85" rx="2.925"/></g><path fill-rule="evenodd" clip-rule="evenodd" d="M584.954 403.5a7 7 0 100-14 7 7 0 000 14z" fill="#DDE3E9"/><path fill-rule="evenodd" clip-rule="evenodd" d="M584.954 399.5a3 3 0 100-6 3 3 0 000 6z" fill="#AFB9C5"/><rect x="384" y="518" width="225" height="39" rx="4" fill="#fff"/><g clip-path="url(#clip12)" fill="#DDE3E9"><rect x="393" y="529.7" width="167" height="5.85" rx="2.925"/><rect x="393" y="539.45" width="112.096" height="5.85" rx="2.925"/></g><path fill-rule="evenodd" clip-rule="evenodd" d="M584.954 544.5a7 7 0 100-14 7 7 0 000 14z" fill="#DDE3E9"/><path fill-rule="evenodd" clip-rule="evenodd" d="M584.954 540.5a3 3 0 100-6 3 3 0 000 6z" fill="#F2F2F2"/><rect x="384" y="471" width="225" height="39" rx="4" fill="#fff"/><g clip-path="url(#clip13)" fill="#DDE3E9"><rect x="393" y="482.7" width="167" height="5.85" rx="2.925"/><rect x="393" y="492.45" width="112.096" height="5.85" rx="2.925"/></g><path fill-rule="evenodd" clip-rule="evenodd" d="M584.954 497.5a7 7 0 100-14 7 7 0 000 14z" fill="#DDE3E9"/><path fill-rule="evenodd" clip-rule="evenodd" d="M584.954 493.5a3 3 0 100-6 3 3 0 000 6z" fill="#F2F2F2"/><rect x="384" y="424" width="225" height="39" rx="4" fill="#fff"/><g clip-path="url(#clip14)" fill="#DDE3E9"><rect x="393" y="435.7" width="167" height="5.85" rx="2.925"/><rect x="393" y="445.45" width="112.096" height="5.85" rx="2.925"/></g><path fill-rule="evenodd" clip-rule="evenodd" d="M584.954 450.5a7 7 0 100-14 7 7 0 000 14z" fill="#DDE3E9"/><path fill-rule="evenodd" clip-rule="evenodd" d="M584.954 446.5a3 3 0 100-6 3 3 0 000 6z" fill="#F2F2F2"/><path fill-rule="evenodd" clip-rule="evenodd" d="M785.986 401.376c-3.945-2.675-9.19-3.376-13.91-3.376-18.436 0-35.765 6.84-50.735 17.032-8.203 5.584-15.541 12.696-22.019 20.1-3.74 4.275-7.074 8.898-9.435 14.041-1.593 3.471-2.686 7.088-3.427 10.818-.903 4.546-1.621 9.184-1.945 13.806-.128 1.82-1.185 11.477 1.841 11.641a4.038 4.038 0 00-.003.668c-6.571 10.274-10.63 22.314-14.395 33.729-3.275 9.934-6.194 19.951-8.088 30.228a329.228 329.228 0 00-4.912 40.987c-.167 2.949-.282 5.9-.381 8.853-.084 2.519-.169 5.038-.252 7.558-.092 2.823-.589 6.073-.14 8.879.391 2.444 2.506 2.074 2.6-.358.113-2.937.094-5.88.223-8.819.171-3.901.347-7.802.538-11.702 1.329-27.092 6.314-53.786 15.515-79.377 3.724-10.356 7.99-20.159 13.474-29.739 4.821-8.423 10.621-16.578 16.549-24.172 5.761-7.381 11.752-14.59 18.811-20.843 5.729-5.074 12.031-9.495 18.509-13.608 8.227-5.224 16.439-10.321 25.351-14.331 4.633-2.084 9.353-3.95 14.022-5.951.84-.359 1.74-.708 2.548-1.125 2.695-1.39 1.808-3.483-.339-4.939" fill="#C1DEE2"/><path fill-rule="evenodd" clip-rule="evenodd" d="M711.818 496c7.477 0 14.131.972 21.02 3.943 5.947 2.565 11.367 5.96 16.629 9.656 7.401 5.199 13.231 11.249 17.312 19.266 2.438 4.789 4.227 11.566 2.589 16.79-1.928 6.152-7.224 11.284-14.199 10.2-4.313-.67-8.266-3.525-11.544-6.212-3.922-3.215-7.061-7.08-9.653-11.373-4.228-7.003-6.712-14.919-10.304-22.237-1.704-3.473-3.351-6.97-5.393-10.271-1.01-1.634-2.086-3.253-3.619-4.468-.82-.65-4.278-1.774-2.956-3.233-19.39.254-36.568 15.146-40.291 33.58-.346 1.718-.617 3.45-.904 5.179-.18 1.091-.107 5.117-1.083 5.814-2.152 1.538-1.248-3.135-1.155-3.808.239-1.739.493-3.476.76-5.211 1.454-9.434 5.654-18.204 12.658-24.932C689.694 500.99 700.501 496 711.818 496" fill="#89C5CC"/><path fill-rule="evenodd" clip-rule="evenodd" d="M74.938 528.736c18.666 31.316 40.407 61.638 53.463 95.877a499.394 499.394 0 00-1.709-12.093c-3.312-21.341-7.43-42.526-11.756-63.685-2.203-10.773-4.534-21.508-6.924-32.241-1.285-5.765-2.555-11.533-3.867-17.292-.318-1.396-.591-3.833-.988-6.302 12.688 41.637 24.924 83.305 33.874 125.942a279.278 279.278 0 012.993 16.758c.28-1.272.556-2.544.857-3.813 3.622-15.207 9.054-30.293 15.522-44.513 3.092-6.799 6.643-13.45 10.825-19.648 2.608-3.863 8.758-8.455 11.136-12.412-13.009 23.862-17.707 53.718-25.219 79.659-1.833 6.331-3.678 12.651-5.486 18.982 11.328-22.718 28.904-41.384 53.341-49.472-29.58 19.544-47.322 53.771-59.278 88.777-.039.415-.086.83-.127 1.246 3.519-6.677 7.95-12.717 13.956-16.946 12.856-9.056 27.116-6.418 39.586 1.35-9.787-6.221-27.474-.556-35.709 5.767-5.895 4.526-10.933 10.598-15.308 16.523-1.048 1.42-2.479 3.077-3.99 4.844A218.333 218.333 0 01129.672 747c.807-3.889.224-10.108.448-13.007.024-.314.044-.628.068-.94a866.281 866.281 0 00-2.152 8.784c1.374-5.506 2.12-11.254 2.703-17.061.15-2.495.297-4.991.451-7.486a242.558 242.558 0 00-.574-14.254c-1.169-4.628-2.479-8.994-3.56-12.625-3.897-13.101-9.612-25.651-16.645-37.36-6.417-10.685-14.099-20.363-22.966-29.116-4.78-4.718-9.784-9.21-14.716-13.765-1.784-1.647-4.972-5.696-7.729-7.807 20.08 11.071 40.749 23.047 55.398 40.885a445.534 445.534 0 00-5.556-19.468c-10.011-32.326-22.65-65.827-39.904-95.044z" fill="#DDE3E9"/><path fill-rule="evenodd" clip-rule="evenodd" d="M95 706c0 35.899 2.843 65 41 65s41-29.101 41-65" fill="#C5CFD6"/><rect x="618" y="188" width="6" height="25" rx="3" fill="#DDE3E9"/><rect x="632" y="172" width="6" height="41" rx="3" fill="#DDE3E9"/><rect x="646" y="164" width="6" height="49" rx="3" fill="#DDE3E9"/><rect x="660" y="172" width="6" height="41" rx="3" fill="#DDE3E9"/><rect x="674" y="156" width="6" height="57" rx="3" fill="#C5CFD6"/><path fill-rule="evenodd" clip-rule="evenodd" d="M126 462.256c0-11.139 9.002-20.256 20-20.256v20.256L132.332 477c-3.888-3.605-6.332-8.893-6.332-14.744z" fill="#F2F2F2"/><path fill-rule="evenodd" clip-rule="evenodd" d="M145.471 462h20.197c0 5.221-2.13 10.113-5.497 13.668-3.703 3.888-8.976 6.332-14.7 6.332-5.273 0-10.099-2.109-13.803-5.443L145.471 462z" fill="#AFB9C5"/><path fill-rule="evenodd" clip-rule="evenodd" d="M166 462c0-10.998-9.002-20-20-20v20h20zm-30-20l8 18-18-8c1.78-4.666 5.777-8.22 10-10z" fill="#C5CFD6"/><path fill-rule="evenodd" clip-rule="evenodd" d="M776.766 471.179a10.505 10.505 0 01-7.671 3.321c-5.817 0-10.533-4.701-10.533-10.5s4.716-10.5 10.533-10.5V434C752.546 434 739 447.503 739 464s13.546 30 30.095 30c8.693 0 16.55-3.666 21.905-9.498l-14.234-13.323z" fill="#F2F2F2"/><path fill-rule="evenodd" clip-rule="evenodd" d="M769 434v19.5c5.799 0 10.5 4.701 10.5 10.5H799c0-16.497-13.503-30-30-30z" fill="#AFB9C5"/><path fill-rule="evenodd" clip-rule="evenodd" d="M779.097 464c0 3.407-1.605 6.435-4.097 8.391L787.262 488c7.137-5.588 11.738-14.251 11.738-24h-19.903z" fill="#C5CFD6"/><path fill-rule="evenodd" clip-rule="evenodd" d="M586.051 195.504a8.095 8.095 0 01-5.901 2.546c-4.475 0-8.102-3.604-8.102-8.05 0-4.446 3.627-8.05 8.102-8.05V167c-12.73 0-23.15 10.352-23.15 23s10.42 23 23.15 23c6.687 0 12.73-2.811 16.85-7.282l-10.949-10.214z" fill="#F2F2F2"/><path fill-rule="evenodd" clip-rule="evenodd" d="M580 167v14.95a8.05 8.05 0 018.05 8.05H603c0-12.648-10.352-23-23-23z" fill="#AFB9C5"/><path fill-rule="evenodd" clip-rule="evenodd" d="M588.073 190a7.98 7.98 0 01-3.073 6.293L594.196 208c5.354-4.191 8.804-10.688 8.804-18h-14.927zM222.007 212.986l-.014.032c.006-.01.014-.05.014-.032" fill="#C5CFD6"/><path fill-rule="evenodd" clip-rule="evenodd" d="M221.998 213.001l-.002.01c0-.01.018-.04.002-.01" fill="#C5CFD6"/><path fill-rule="evenodd" clip-rule="evenodd" d="M222.067 212.832c-.014.04-.032.078-.048.118l.024-.056c-.208.52-.076.182.024-.062" fill="#C5CFD6"/><path fill-rule="evenodd" clip-rule="evenodd" d="M222.022 212.953l-.024.056c-.058.112.024-.056.024-.056M221.999 213.002l.002-.004-.002.004" fill="#C5CFD6"/><path fill-rule="evenodd" clip-rule="evenodd" d="M221.99 213.016c-.012.024.056-.092 0 0z" fill="#C5CFD6"/><path fill-rule="evenodd" clip-rule="evenodd" d="M221.998 213.002l.004-.004c-.002.002-.002.004-.004.004" fill="#C5CFD6"/><rect x="174" y="161" width="95" height="63" rx="4" fill="#DDE3E9"/><path fill-rule="evenodd" clip-rule="evenodd" d="M210 179l-28 45h56l-28-45z" fill="#AFB9C5"/><path fill-rule="evenodd" clip-rule="evenodd" d="M237.5 191L213 224h49l-24.5-33z" fill="#C5CFD6"/><path fill-rule="evenodd" clip-rule="evenodd" d="M248 191a9 9 0 009-9 9 9 0 00-9-9 9 9 0 00-9 9 9 9 0 009 9z" fill="#fff"/><path fill-rule="evenodd" clip-rule="evenodd" d="M698.993 639.986l.014.032c-.006-.01-.014-.05-.014-.032" fill="#C5CFD6"/><path fill-rule="evenodd" clip-rule="evenodd" d="M699.002 640.001l.002.01c0-.01-.018-.04-.002-.01" fill="#C5CFD6"/><path fill-rule="evenodd" clip-rule="evenodd" d="M698.933 639.832c.014.04.032.078.048.118l-.024-.056c.208.52.076.182-.024-.062" fill="#C5CFD6"/><path fill-rule="evenodd" clip-rule="evenodd" d="M698.978 639.953l.024.056c.058.112-.024-.056-.024-.056M699.001 640.002l-.002-.004.002.004" fill="#C5CFD6"/><path fill-rule="evenodd" clip-rule="evenodd" d="M699.01 640.016c.012.024-.056-.092 0 0z" fill="#C5CFD6"/><path fill-rule="evenodd" clip-rule="evenodd" d="M699.002 640.002l-.004-.004c.002.002.002.004.004.004" fill="#C5CFD6"/><rect width="142" height="94" rx="4" transform="matrix(-1 0 0 1 770 563)" fill="#DDE3E9"/><path fill-rule="evenodd" clip-rule="evenodd" d="M717.274 590l41.055 67h-82.11l41.055-67z" fill="#AFB9C5"/><path fill-rule="evenodd" clip-rule="evenodd" d="M674.944 607.946L711.239 657h-72.59l36.295-49.054z" fill="#C5CFD6"/><path fill-rule="evenodd" clip-rule="evenodd" d="M659.5 608c-7.456 0-13.5-6.044-13.5-13.5s6.044-13.5 13.5-13.5 13.5 6.044 13.5 13.5-6.044 13.5-13.5 13.5z" fill="#fff"/><path fill-rule="evenodd" clip-rule="evenodd" d="M278.181 492.584c7.274 4.387 14.421 6.507 17.776 5.642 8.413-2.17 9.187-32.969 2.677-45.111-6.509-12.141-39.973-17.434-41.66 6.623-.586 8.35 2.918 15.801 8.094 21.881l-9.281 43.29h26.96l-4.566-32.325z" fill="#B28B67"/><path fill-rule="evenodd" clip-rule="evenodd" d="M245.22 451.73c-.871-.863-1.346-2.096-1.757-3.266-.426-1.216-.841-2.444-1.124-3.71-.566-2.528-.572-5.436 1.231-7.399 1.445-1.574 3.614-2.281 5.616-2.434a10.31 10.31 0 013.982.505c1.268.417 2.362 1.249 3.591 1.765.047-2.725.514-5.576 1.895-7.902 1.329-2.239 3.449-3.495 5.862-3.827 2.477-.341 4.924.239 7.141 1.439.555.3 1.106.615 1.632.972.441.298.899.658 1.416.779.577.135.862-.198 1.237-.619a9.383 9.383 0 011.458-1.313c2.316-1.704 5.355-2.404 8.038-1.383 1.236.47 2.439 1.269 3.277 2.37.748.982 1.281 2.539 2.313 3.222.438.291.747-.094 1.146-.378.599-.427 1.17-.899 1.776-1.314.851-.584 1.773-1.02 2.76-1.249 1.445-.334 3.442-.256 3.855 1.638.155.711.037 1.472-.014 2.189-.068.984-.14 1.968-.226 2.951a21.041 21.041 0 01-.287 2.2c-.075.39-.31 1.118-.143 1.51.21.489 1.175.211 1.587.228.815.033 1.633.176 2.386.524.584.271 1.198.668 1.444 1.337.152.411.112.834.04 1.257-.086.508.013.777.077 1.29 1.094-.539 4.885-1.737 5.362.225.159.653-.203 1.391-.479 1.942-.484.967-1.118 1.85-1.767 2.693-1.353 1.757-2.968 3.273-4.706 4.569 2.036.906 2.568 3.578.804 5.17-.778.703-1.825.86-2.807.815-.359-.017-.877-.155-1.16-.092-.152.033-.315.162-.526.177-1.386.095-2.95-.239-4.305-.547-2.413-.548-4.699-1.693-6.565-3.436-.479-.447-.874-.704-1.518-.698-.565.006-1.119.161-1.683.175-1.493.038-2.839-.692-4.225-1.178-.084 1.874-.618 3.938-1.384 5.623-.624 1.375-1.928 1.575-3.21 1.695-4.099.386-8.212-.045-12.315-.039 3.972.899 8.077 1.269 12.014 2.326 1.78.478.421 1.679-.34 2.511-1.253 1.37-2.185 3.068-2.831 4.856-1.943-2.535-5.378-4.205-8.421-3.426-3.362.86-5.73 5.41-3.58 8.682 1.248 1.899 3.502 2.632 5.378 3.448-1.463 1.522-1.817 3.77-2.698 5.664-.434.934-1.044 1.99-2.015 2.316-.36.12-.781.131-1.065.424-.351.363-.434.769-.883 1.081-1.79 1.245-4.585 1.149-6.172-.476-1.434-1.47-1.061-3.795.137-5.285-1.907-.796-5.382-1.819-4.624-4.792-4.132-.275-14.166-6.982-8.62-11.883-3.044-1.722-5.84-5.929-3.885-9.638 1.506-2.856 5.007-4.132 7.88-4.284" fill="#191847"/><path fill-rule="evenodd" clip-rule="evenodd" d="M216.046 666.548h86.783L314.2 805.939H185.017l31.029-139.391z" fill="#C5CFD6"/><path fill-rule="evenodd" clip-rule="evenodd" d="M216.046 666.548h26.691l15.975 139.391h-73.695l31.029-139.391z" fill="#000" fill-opacity=".1"/><path fill-rule="evenodd" clip-rule="evenodd" d="M350.51 694.164c-9.752 20.697-24.991 70.938-24.991 70.938l12.937 5.915s32.825-52.813 52.886-88.915a1183.765 1183.765 0 00-2.769 26.896c-2.09 22.786-.001 72.016 1.123 86.236.707 8.938 12.843 7.066 13.975-.023.192-1.2.974-5.415 2.141-11.704 5.721-30.837 20.695-111.543 20.721-131.305.011-7.951-15.513-15.095-24.766-9.535-6.355-6.786-18.384-10.697-25.294.513-4.393 7.126-14.831 27.358-25.963 50.984z" fill="#B28B67"/><path fill-rule="evenodd" clip-rule="evenodd" d="M326.444 746.502l44.403-105.261c10.637-17.123 40.461 3.484 36.833 13.416-8.235 22.547-50.12 95.542-52.573 102.259l-28.663-10.414z" fill="#1F28CF"/><path fill-rule="evenodd" clip-rule="evenodd" d="M327.144 758.717c-.687-.949-2.028-1.172-2.927-.422-1.838 1.536-4.647 4.037-5.637 5.752-1.519 2.634-3.557 8.192-3.557 8.192l54.87 31.701s6.221-5.84 1.938-9.066a381.48 381.48 0 01-7.068-5.442l-19.013-26.215a1 1 0 00-1.42-.205l-4.035 3.11s-5.415-.473-8.082-2.014c-1.691-.977-3.772-3.601-5.069-5.391zM389.724 788.164c-1.069-.478-2.343 0-2.746 1.099-.825 2.25-2.008 5.822-2.008 7.802 0 3.041 1.012 8.874 1.012 8.874h63.358s2.47-8.17-2.851-8.822c-5.321-.651-8.84-1.176-8.84-1.176l-29.564-13.189a1 1 0 00-1.332.532l-1.941 4.713s-4.926 2.3-8.006 2.3c-1.952 0-5.064-1.231-7.082-2.133z" fill="#E4E4E4"/><path fill-rule="evenodd" clip-rule="evenodd" d="M429.645 660.29c0 29.865-14.172 99.527-14.181 106.103l-30.494.023s6.695-93.238 4.748-94.243c-1.947-1.004-79.814 7.78-103.167 7.78-33.676 0-47.607-21.251-48.738-60.618h66.711c13.583 1.454 84.433 15.755 110.745 20.671 11.264 2.104 14.376 12.057 14.376 20.284z" fill="#2B44FF"/><path fill-rule="evenodd" clip-rule="evenodd" d="M338.609 633.121c-21.334 44.462-111.14 14.44-111.14 14.44 0-7.704 3.054-15.428 6.261-23.54 3.438-8.698 7.054-17.843 7.27-27.887.398-18.48 3.851-74.471 18.261-93.385.263-.855.529-1.712.799-2.571l.998.47c.155-.161.312-.318.47-.47l31.443 4.865c0 14.232 9.101 27.727 17.294 39.875 1.993 2.956 3.933 5.832 5.675 8.62 2.281 3.651 4.856 7.368 7.494 11.176 13.361 19.288 28.357 40.935 15.175 68.407z" fill="#C1DEE2"/><path fill-rule="evenodd" clip-rule="evenodd" d="M298.319 624.716c2.103-10.859 3.467-18.109 4.093-21.749 16.751 18.942 26.428 28.523 29.031 28.743 4.897.413 8.514-3.932 9.545-2.71 1.702 5.058-3.107 17.721-12.299 19.562-4.389.879-11.182-8.179-13.981-11.389-1.1-1.262-6.563-5.414-16.389-12.457zm28.936-57.898c4.342 0 6.674 1.797 9.242 5.421 2.567 3.625 4.997 20.718.875 20.718s-21.393-6.607-21.393-11.05c0-4.442 11.784-6.323 11.784-9.668 0-3.344-4.851-5.421-.508-5.421z" fill="#B28B67"/><path fill-rule="evenodd" clip-rule="evenodd" d="M254.175 521.22c-11.029 46.013-6.536 84.82 35.377 120.021l-.788 2.825c-49.197-34.409-49.221-76.107-34.589-122.846z" fill="#000" fill-opacity=".2"/><path fill-rule="evenodd" clip-rule="evenodd" d="M594.823 421.65c-7.285 4.391-14.443 6.512-17.803 5.646-8.426-2.171-9.2-32.994-2.681-45.145 6.519-12.152 40.033-17.448 41.722 6.628.586 8.355-2.922 15.813-8.106 21.897L617.25 454h-27l4.573-32.35z" fill="#B28B67"/><path fill-rule="evenodd" clip-rule="evenodd" d="M589.728 368.146c3.559-.584 13.14-.985 14.907-.985 1.129 0 2.353.258 3.022-.778.547-.85.347-2.285.51-3.271.19-1.144.46-2.274.732-3.401.776-3.207 1.95-6.258 3.591-9.122 3.081-5.374 7.594-9.584 13.291-12.033 6.292-2.705 13.411-3.324 20.178-2.776 7.242.587 13.798 2.978 20.636 5.228 6.516 2.144 13.34 2.987 20.155 1.941 6.867-1.055 12.055-4.777 17.846-8.309 5.929-3.616 12.705-5.981 19.714-5.437 6.543.507 12.573 3.209 17.983 6.818 5.062 3.376 9.239 7.439 11.597 13.156 2.537 6.15 2.534 12.901-1.637 18.337-6.047 7.878-17.272 9.916-26.61 9.713a50.867 50.867 0 01-15.807-2.896c-6.801-2.393-12.679-6.447-19.041-9.737-2.986-1.544-6.073-2.812-9.308-3.725-3.14-.886-6.232-1.293-9.074.603-3.007 2.007-5.702 3.978-9.142 5.234-3.3 1.204-6.795 1.878-10.311 1.851-6.841-.053-13.584-2.184-20.228-3.612-5.418-1.164-11.215-2.324-16.739-1.205-2.305.467-5.671 1.431-6.504 3.827 14.011 2.539 19.514 19.867 15.564 32.587-2.132 6.866-14.947 14.892-19.929 11.283-3.157-2.287-1.24-5.289 0-7.271 2.375-3.795 3.188-8.67-1.207-11.312-3.791-2.279-7.777 3.133-7.853 3.127-1.041-.082-10.045-5.174-16.247-12.604-6.12.363-7.048-3.672-5.587-6.972 1.461-3.299 10.581-7.452 15.498-8.259z" fill="#191847"/><path fill-rule="evenodd" clip-rule="evenodd" d="M635.213 549l-42.272 138.467-20.477 117.756h-16.056L578.046 549h57.167z" fill="#B28B67"/><path fill-rule="evenodd" clip-rule="evenodd" d="M635.213 549l-42.272 138.467-20.477 117.756h-16.056L578.046 549h57.167z" fill="#000" fill-opacity=".1"/><path fill-rule="evenodd" clip-rule="evenodd" d="M650.336 549c-2.871 76.026.508 115.241 1.15 122.148.643 6.907 9.442 51.694 30.274 136.394l-17.109-5.887c-32.922-77.682-44.141-118.055-47.917-128.256-3.776-10.2-13.805-51.667-30.086-124.399h63.688z" fill="#B28B67"/><path fill-rule="evenodd" clip-rule="evenodd" d="M678.761 800.204c1.07-.479 2.345-.001 2.748 1.099.825 2.253 2.008 5.829 2.008 7.812 0 3.044-1.013 8.885-1.013 8.885h-63.358s-2.469-8.181 2.852-8.833c5.321-.652 8.84-1.178 8.84-1.178l29.563-13.205a1 1 0 011.333.533l1.941 4.718s4.926 2.303 8.006 2.303c1.951 0 5.063-1.232 7.08-2.134zM573.168 800.204c1.07-.479 2.345-.001 2.748 1.099.824 2.253 2.007 5.829 2.007 7.812 0 3.044-1.012 8.885-1.012 8.885h-63.358s-2.47-8.181 2.851-8.833c5.321-.652 8.841-1.178 8.841-1.178l29.563-13.205a.999.999 0 011.332.533l1.942 4.718s4.925 2.303 8.005 2.303c1.952 0 5.063-1.232 7.081-2.134z" fill="#E4E4E4"/><path fill-rule="evenodd" clip-rule="evenodd" d="M640.83 549l-17.973 70.547h-54.898L576.144 549h64.686z" fill="#69A1AC"/><path fill-rule="evenodd" clip-rule="evenodd" d="M650.94 549c8.871 26.642 3.37 70.547 3.37 70.547h-56.021L582.884 549h68.056z" fill="#89C5CC"/><path fill-rule="evenodd" clip-rule="evenodd" d="M712.067 584.484c-4.194-6.153-32.463-88.949-32.463-88.949l-24.382 3.52s40.537 86.217 42.853 90.227c3.009 5.209.344 13.766-1.463 19.569-.279.897-.538 1.729-.752 2.472 3.792 1.092 5.235-1.075 6.756-3.36 1.719-2.58 3.537-5.311 8.953-3.664 2.092.636 4.102 1.453 6.066 2.251 6.783 2.758 13.015 5.291 20.175-.638 1.135-.94 2.092-4.013-1.515-5.803-8.985-4.458-22.178-12.618-24.228-15.625zm-210.116-4.279l27.239-35.167 13.027 16.631-30.103 23.925c-6.41 14.096-10.457 20.366-12.141 18.81-1.42-1.312-1.093-3.014-.792-4.582.235-1.221.454-2.362-.181-3.172-1.449-1.85-7.876.229-13.89 2.463s-5.006-1.011-3.91-2.784c5.201-5.549 12.118-10.924 20.751-16.124z" fill="#B28B67"/><path fill-rule="evenodd" clip-rule="evenodd" d="M595.56 436.904l-9.865-.296c-7.65 55.681-80.491 103.14-82.464 123.83-.724 7.588 5.09 10.555 2.671 13.175l13.807 7.39c1.773-2.768 6.933 1.114 15.938-3.374 9.006-4.488 68.824-77.32 59.913-140.725z" fill="#DB2721"/><path fill-rule="evenodd" clip-rule="evenodd" d="M611.611 423.212a4.002 4.002 0 014.745 3.082l1.474 6.931c20.087 11.379 70.87 46.679 93.466 122.504 2.374 7.965.762 12.637-.525 16.369-.881 2.554-1.611 4.668-.809 7.096l-15.753 6.818c-.258-1.84-2.52-2.949-5.439-4.38-4.243-2.081-9.874-4.843-12.751-11.52-2.727-6.33-6.522-14.181-10.959-22.885 1.404 12.156.669 23.62-3.048 33.552-9.272 24.778-85.102 9.69-95.954-12.733-5.791-11.966-1.552-23.291 4.055-38.268 7.117-19.013 16.437-43.911 10.243-83.477l-2.515-11.826a3.997 3.997 0 013.08-4.743l30.69-6.52z" fill="#FF4133"/><defs><clipPath id="clip0"><path fill="#fff" d="M49.33 464.965h837.341v272.541H49.33z"/></clipPath><clipPath id="clip1"><path fill="#fff" d="M289 224.2h73v21.6h-73z"/></clipPath><clipPath id="clip2"><path fill="#fff" d="M289 282.6h73v16.8h-73z"/></clipPath><clipPath id="clip3"><path fill="#fff" d="M289 332.6h73v16.8h-73z"/></clipPath><clipPath id="clip4"><path fill="#fff" d="M289 382.6h73v16.8h-73z"/></clipPath><clipPath id="clip5"><path fill="#fff" d="M325 250.2h73v21.6h-73z"/></clipPath><clipPath id="clip6"><path fill="#fff" d="M355 308.6h73v16.8h-73z"/></clipPath><clipPath id="clip7"><path fill="#fff" d="M325 358.6h73v16.8h-73z"/></clipPath><clipPath id="clip8"><path fill="#fff" d="M355 408.6h73v16.8h-73z"/></clipPath><clipPath id="clip9"><path fill="#fff" d="M393 289.1h167v18.8H393z"/></clipPath><clipPath id="clip10"><path fill="#fff" d="M393 341.7h167v15.6H393z"/></clipPath><clipPath id="clip11"><path fill="#fff" d="M393 388.7h167v15.6H393z"/></clipPath><clipPath id="clip12"><path fill="#fff" d="M393 529.7h167v15.6H393z"/></clipPath><clipPath id="clip13"><path fill="#fff" d="M393 482.7h167v15.6H393z"/></clipPath><clipPath id="clip14"><path fill="#fff" d="M393 435.7h167v15.6H393z"/></clipPath></defs></svg>